<svg width="137" height="48" viewBox="0 0 137 48" fill="none" xmlns="http://www.w3.org/2000/svg">
<g id="&#236;&#161;&#176;&#234;&#176;&#129;&#236;&#167;&#145; 1" clip-path="url(#clip0_10417_1674)">
<g id="Group">
<path id="Vector" d="M2.1563 43.0293C1.43553 43.0293 0.810864 42.6759 0.282301 41.9692C0.0961024 41.6924 0 41.4332 0 41.1859C0 40.909 0.0961024 40.6322 0.282301 40.3554C0.564602 39.9255 0.876935 39.7135 1.2193 39.7135C1.34543 39.7135 1.45355 39.7311 1.54965 39.7606C1.92205 39.8548 2.28243 39.896 2.6308 39.896C3.0993 39.896 3.58582 39.8195 4.08435 39.6663C7.14762 38.9596 8.77535 38.6062 8.96155 38.6062L14.7818 37.3164C14.5956 36.9807 14.4995 36.6744 14.4995 36.3976C14.4995 35.9677 14.6857 34.6779 15.0641 32.5341C15.1902 31.8921 15.2503 31.2443 15.2503 30.6023C15.2503 30.0192 15.2022 29.4244 15.1121 28.806L15.0641 28.1169C15.0641 27.4455 15.2142 26.8389 15.5085 26.297C15.8028 25.7611 16.1873 25.4901 16.6558 25.4901C17.5927 25.4901 18.0612 26.7152 18.0612 29.1711L17.7789 30.9674C17.2804 34.5542 16.854 36.5508 16.5116 36.9513L21.7672 35.8911C27.4613 34.8781 30.8549 34.1596 31.948 33.7297C32.2003 33.6354 32.4466 33.5942 32.6988 33.5942C33.1373 33.5942 33.5457 33.7297 33.9181 34.0065C34.3866 34.3716 34.6209 34.8487 34.6209 35.4317C34.6209 35.8322 34.4647 36.4447 34.1524 37.2693C33.9962 37.6344 33.7319 37.8229 33.3535 37.8229C33.1313 37.8229 32.9391 37.7405 32.7649 37.5697C32.5907 37.3989 32.4286 37.2045 32.2724 36.9689C32.1162 36.7392 31.882 36.6214 31.5696 36.6214L27.7195 37.2222C27.0288 37.2222 24.0136 37.711 18.6619 38.6946L10.0247 40.5792C8.89548 40.7971 7.77228 41.0386 6.64909 41.3154C5.58595 41.498 4.53483 41.9162 3.50774 42.5581C3.06927 42.8644 2.61879 43.0175 2.14429 43.0175L2.1563 43.0293ZM6.0965 29.9603C5.87426 29.9603 5.628 29.8366 5.3457 29.5952C4.84717 29.1947 4.5949 28.8413 4.5949 28.5351C4.5949 28.1699 4.62493 27.9697 4.691 27.9343C4.75106 27.9049 4.7871 27.8754 4.7871 27.8401C5.2556 27.5338 5.71209 27.2099 6.15055 26.8742C7.18366 25.9554 8.34289 25.2487 9.62226 24.7598C10.5893 24.4241 11.4542 23.9176 12.205 23.2403L19.2445 16.7088H19.2926C19.5448 16.4614 19.701 16.2317 19.7611 16.0197C19.7611 15.9608 19.719 15.8843 19.6409 15.79C19.5628 15.6958 19.4908 15.6546 19.4307 15.6546C18.3676 15.6546 17.3645 15.7311 16.4275 15.8843C14.8658 16.1611 13.2862 16.3319 11.6885 16.3908C11.0338 16.3908 10.4271 16.2317 9.88053 15.9078C9.33395 15.5839 9.04564 15.1186 9.0096 14.5061C9.0096 14.1409 9.14775 13.7993 9.43005 13.4931C9.61625 13.3105 9.82047 13.2163 10.0427 13.2163L10.325 13.2634C11.1359 13.5402 11.9527 13.6757 12.7636 13.6757C13.2922 13.6757 13.8327 13.6227 14.3853 13.5166C14.9319 13.4106 15.5025 13.34 16.0972 13.3105C16.3134 13.3105 16.5296 13.2811 16.7278 13.2163C16.932 13.1574 17.1423 13.122 17.3585 13.122C18.1694 13.0926 18.9202 12.8335 19.6109 12.3387C20.3016 11.8499 21.1606 11.6025 22.1937 11.6025L23.1306 11.6497C24.6923 11.6497 25.4792 12.327 25.4792 13.6757C25.4491 14.2882 25.1368 14.7947 24.5422 15.1952C22.3198 16.6381 20.2896 18.3697 18.4397 20.3957C19.0043 21.2555 19.659 21.8681 20.4098 22.2332C21.8513 23.0636 23.2268 23.8293 24.5422 24.536C25.323 24.9954 25.7314 25.5667 25.7615 26.2381C25.7615 26.6033 25.6593 26.9036 25.4551 27.1333C25.2509 27.363 24.9626 27.4808 24.5842 27.4808C24.0196 27.4808 23.425 27.1746 22.8003 26.562C22.3618 26.0732 20.7041 25.072 17.827 23.5701C16.9801 23.0813 16.4515 22.834 16.2293 22.834C15.977 22.834 15.7308 22.9576 15.4785 23.1991C12.7876 25.5903 11.0998 26.9449 10.4091 27.2511C9.09369 27.8636 7.90442 28.647 6.84129 29.5952C6.55899 29.8425 6.30672 29.9603 6.09049 29.9603H6.0965Z" fill="#282828"/>
<path id="Vector_2" d="M33.5398 32.3574C32.9752 32.328 32.6929 32.0983 32.6929 31.6684C32.6929 31.5152 32.7469 31.3857 32.855 31.2797C32.9632 31.1736 33.3656 30.9498 34.0503 30.6141C36.3327 29.6306 38.1947 28.3584 39.6363 26.7977C39.9186 26.4914 40.2609 26.2441 40.6694 26.0615C41.7325 25.5727 42.7356 24.8188 43.6726 23.8058C44.0149 23.4053 44.3933 23.0401 44.8018 22.6986C45.4565 22.086 46.1292 21.2909 46.8199 20.3074C48.0993 18.7408 48.9162 17.1329 49.2585 15.4779C49.2285 15.419 49.1204 15.3837 48.9282 15.3837C45.1141 15.6605 42.7836 15.8725 41.9367 16.0257C41.4382 15.9668 40.8856 15.9314 40.297 15.9314C39.8285 15.9314 38.6092 15.9786 36.6391 16.0669L36.591 16.114C35.9003 16.0551 35.5579 15.7312 35.5579 15.1481C35.5579 14.4767 37.0295 14.0762 39.9666 13.9525C41.4682 13.8936 42.9398 13.7052 44.3753 13.3989C44.6276 13.3695 44.9219 13.3518 45.2643 13.3518H46.0151C47.6128 13.3518 49.1564 12.9984 50.658 12.2917C50.8442 12.168 51.0484 12.1091 51.2707 12.1091C51.8353 12.1091 52.2377 12.4154 52.49 13.0279C52.6161 13.3636 52.6762 13.6698 52.6762 13.9467C52.6762 14.0998 52.6581 14.2411 52.6281 14.3589C52.502 14.6652 52.4059 15.0009 52.3458 15.3719C52.1596 16.2318 51.8112 17.0269 51.3127 17.7631C51.0304 18.0988 50.8442 18.4227 50.7481 18.729C49.4327 21.7386 47.4146 24.1886 44.6937 26.0909C42.4713 27.8696 39.9546 29.4833 37.1376 30.9204C35.8222 31.7508 34.6209 32.222 33.5218 32.3457L33.5398 32.3574ZM58.7366 48.0001C58.5504 48.0001 58.3642 47.9707 58.172 47.9059C58.172 47.8765 58.154 47.8588 58.124 47.8588C57.9378 47.8294 57.7636 47.7646 57.6074 47.6762C56.9167 47.2757 56.5743 46.7869 56.5743 46.2038C56.5743 45.8033 56.8146 45.4087 57.3011 45.0082C57.7876 44.6077 58.106 44.1012 58.2621 43.4887C59.073 39.2247 59.4994 36.9278 59.5295 36.5862C59.5295 36.2799 59.3733 36.1268 59.061 36.1268H58.8748C57.8116 36.3447 56.7305 36.4801 55.6373 36.539C54.2919 36.6038 52.9765 36.7982 51.6971 37.1398C51.1626 37.2635 50.604 37.3224 50.0093 37.3224C49.0063 37.3224 48.0693 37.552 47.1923 38.0114C47.0662 38.1057 46.928 38.1469 46.7719 38.1469C46.4595 38.1174 46.1953 37.9761 45.973 37.7346C45.6307 37.181 45.4565 36.7216 45.4565 36.3565C45.4565 35.6851 45.8169 35.3435 46.5376 35.3435H46.8199C47.0722 35.4082 47.4746 35.4377 48.0392 35.4377C48.8501 35.4377 49.715 35.3435 50.622 35.1609C52.0635 34.8252 53.5171 34.6544 54.9886 34.6544H55.319C56.1959 34.6544 56.8026 34.407 57.1509 33.9182C57.3672 33.7062 57.5233 33.5943 57.6194 33.5943H57.8537C58.3222 33.5943 58.8808 33.394 59.5175 32.9935C60.1601 32.593 60.6827 32.3928 61.0911 32.3928C61.5596 32.3928 61.9501 32.5754 62.2624 32.9464C62.4786 33.1938 62.5927 33.4824 62.5927 33.8181C62.5927 34.0006 62.5447 34.2186 62.4546 34.46C61.5777 36.8217 60.983 39.3366 60.6707 42.0046C60.5446 42.8939 60.3884 43.689 60.2022 44.3957C60.0761 44.7609 60.016 45.1496 60.016 45.5442C60.016 45.821 60.046 46.1096 60.1121 46.4158L60.1601 46.6927C60.1601 47.0932 60.01 47.4053 59.7157 47.635C59.4153 47.8647 59.097 47.9825 58.7546 47.9825L58.7366 48.0001ZM59.067 31.8038C58.3162 31.8038 57.9378 31.1619 57.9378 29.872C57.9678 28.9533 58.0159 28.382 58.0759 28.17C58.4483 26.5444 58.6405 24.9366 58.6405 23.3405L58.5925 22.2804C58.5925 20.5606 58.6886 18.8586 58.8748 17.1741L59.2051 11.2846C59.2051 10.301 59.079 9.35279 58.8327 8.43401L58.7847 7.83328C58.7847 7.03819 59.1451 6.6377 59.8658 6.6377C60.1481 6.6377 60.4304 6.73193 60.7127 6.9145C61.1812 7.25021 61.4155 7.77438 61.4155 8.48113C61.0731 12.8689 60.8028 16.7795 60.6166 20.2132H60.7127C60.7428 20.1837 62.9051 20.0777 67.1876 19.8892C67.9384 19.8892 68.437 20.2249 68.6892 20.9022C68.7853 21.0848 68.8274 21.2674 68.8274 21.4559C68.8274 21.9447 68.5211 22.3157 67.9144 22.5631C67.3018 22.8105 66.7311 22.9282 66.2026 22.9282C65.8602 22.9282 65.5118 22.8517 65.1695 22.6986C65.1395 22.6691 65.0494 22.6279 64.9112 22.5808C64.7731 22.5336 64.2805 22.5101 63.4336 22.5101C62.1182 22.5395 61.1812 22.5867 60.6166 22.6455V23.6586H60.6647L60.5686 26.4679C60.5686 27.3572 60.6467 28.2465 60.8028 29.1359C60.8629 29.3832 60.8989 29.6129 60.8989 29.8249C60.8989 30.6848 60.5085 31.2797 59.7277 31.6213C59.5054 31.7449 59.2892 31.8038 59.073 31.8038H59.067Z" fill="#282828"/>
<path id="Vector_3" d="M86.2278 31.9448C86.1017 31.9448 85.9756 31.8977 85.8554 31.8093C85.3869 31.5325 85.0446 31.1497 84.8223 30.6609C84.1016 29.2533 83.0384 28.0989 81.6329 27.2096C80.8821 26.6265 80.2695 26.3379 79.801 26.3379C79.6448 26.3379 79.5127 26.385 79.4046 26.4734C79.2964 26.5676 79.2063 26.6442 79.1463 26.7031C76.083 29.0942 74.221 30.6137 73.5603 31.2557C73.0918 31.6856 72.6834 31.8977 72.341 31.8977C71.8725 31.8977 71.4941 31.5325 71.2118 30.7904C71.1518 30.6668 71.1157 30.5313 71.1157 30.3782C71.1157 29.8245 71.5362 29.2709 72.3831 28.7232C74.6955 27.3156 76.8398 25.6842 78.8099 23.8466C81.3146 21.7028 82.9724 20.0302 83.7832 18.8287C84.0655 18.493 84.2037 18.2751 84.2037 18.1868C84.2037 18.1279 84.1796 18.0395 84.1316 17.9335C84.0835 17.8275 82.5099 17.7568 79.4166 17.7274C78.6357 17.7274 77.8849 17.851 77.1642 18.0925C76.9119 18.1573 76.6777 18.1868 76.4614 18.1868C76.023 18.1868 75.6325 18.0513 75.2902 17.7745C74.7256 17.3445 74.4433 16.7791 74.4433 16.0724C74.5994 15.4893 75.0199 15.2007 75.7106 15.2007C77.6807 15.4187 79.0742 15.5247 79.8851 15.5247C80.8881 15.5247 81.9032 15.4658 82.9363 15.3421C83.9033 15.3421 84.8764 15.0535 85.8434 14.4704C86.0957 14.3173 86.2819 14.2407 86.408 14.2407C86.6603 14.2407 87.1588 14.5941 87.9096 15.3009C88.282 15.6071 88.4742 15.8839 88.4742 16.1313C88.4742 16.3139 88.3961 16.5318 88.24 16.7733C86.8345 19.135 84.8163 21.5733 82.1855 24.0881C81.9032 24.3355 81.7651 24.5357 81.7651 24.6888C81.7651 24.9656 82.2636 25.5487 83.2667 26.438C83.6751 26.8032 84.0475 27.1742 84.3959 27.5453C84.5821 27.7279 84.7863 27.8221 85.0085 27.8221C85.1647 27.8221 85.3149 27.7868 85.453 27.7043C85.5911 27.6277 85.7113 27.5865 85.8074 27.5865C86.1197 27.5865 86.2759 27.7573 86.2759 28.093C86.3059 29.0118 86.5101 29.8893 86.8885 30.7139L86.9366 30.9436C86.9366 31.5855 86.7023 31.9271 86.2338 31.9566L86.2278 31.9448ZM86.0416 45.1021C84.8824 45.1021 84.3058 44.2422 84.3058 42.5225C84.3058 40.3787 83.8493 38.335 82.9423 36.4032C82.8162 36.1264 82.6901 35.6847 82.5699 35.0663C82.5699 34.6363 82.8522 34.4243 83.4168 34.4243C84.0115 34.4243 84.3718 34.654 84.498 35.1134C84.6842 35.879 84.9064 36.6152 85.1527 37.322C85.5911 38.6118 85.9035 39.931 86.0897 41.2798C86.1497 41.6802 86.2218 42.0631 86.2999 42.4282C86.378 42.7934 86.6182 43.0113 87.0267 43.0702C87.2789 43.1291 87.4772 43.1939 87.6393 43.2528C87.7955 43.3117 87.8736 43.559 87.8736 43.989L87.9216 44.3541C86.9486 44.8429 86.3239 45.0903 86.0476 45.0903L86.0416 45.1021ZM89.2791 47.3107C88.9968 47.3107 88.7145 47.2518 88.4322 47.1281C87.8375 46.8513 87.5072 46.3742 87.4471 45.7028C87.4471 45.4849 87.6213 45.0432 87.9637 44.3659L88.4802 44.3188L89.3271 44.3659C91.1711 44.3659 92.9069 43.7828 94.5347 42.6167C94.9071 42.3104 95.0993 41.8334 95.0993 41.1914L95.1473 41.0088C94.6488 40.7615 94.3485 40.5966 94.2584 40.5023C93.8499 40.0429 93.3334 39.8133 92.7087 39.8133C91.4894 39.9075 90.6606 40.3198 90.2221 41.056C89.8497 41.6096 89.4533 41.8864 89.0508 41.8864C88.8646 41.8864 88.6604 41.8098 88.4382 41.6567C87.9997 41.321 87.7835 40.9382 87.7835 40.5082C87.7835 40.3551 87.8135 40.1843 87.8796 40.0017C88.1619 39.3892 88.5823 38.9122 89.1469 38.5764C90.2401 37.9345 91.3693 37.6106 92.5225 37.6106C93.898 37.6106 94.871 37.8874 95.4296 38.441L95.76 38.7178C95.9762 38.3821 96.1684 37.799 96.3246 36.9686C96.5769 36.1087 96.697 35.2371 96.697 34.3477V34.0238C96.697 33.0756 97.0574 32.5985 97.7781 32.5985C98.1866 32.5985 98.5229 32.7575 98.7872 33.0815C99.0515 33.4054 99.1836 33.8118 99.1836 34.3006C99.1836 34.9426 98.4509 37.6459 96.9793 42.3988C96.727 42.9818 96.6069 43.506 96.6069 43.9654L96.6549 44.6545C96.6549 45.2081 95.9041 45.5438 94.4025 45.6675C92.8709 45.6969 91.4774 46.174 90.2281 47.0928C89.8857 47.2459 89.5734 47.3225 89.2911 47.3225L89.2791 47.3107ZM96.1744 32.5868C96.0483 32.5868 95.9222 32.5396 95.802 32.4513C95.0813 31.8388 94.7209 31.1968 94.7209 30.5195C94.7209 30.3075 94.7509 30.0896 94.817 29.8776C95.2855 28.1578 95.6278 25.3661 95.8501 21.5026C96.1324 18.0042 96.2885 15.6601 96.3186 14.4645C96.3186 13.0864 96.1144 12.1323 95.7059 11.614C95.1714 10.7247 94.9071 9.78822 94.9071 8.80467V8.48074L94.859 8.34528C94.859 8.09792 94.877 7.86233 94.9071 7.63264C94.9371 7.40295 95.1413 7.28516 95.5197 7.28516C95.802 7.28516 96.1924 7.42062 96.691 7.69743C98.0664 8.71043 98.7572 11.2724 98.7572 15.3833C98.7572 16.6083 98.6791 17.8216 98.5229 19.0172C98.4268 19.6945 98.1625 22.1622 97.7241 26.4263C97.2556 29.9247 96.9913 31.7976 96.9252 32.039C96.8652 32.4042 96.6129 32.5926 96.1744 32.5926V32.5868Z" fill="#282828"/>
</g>
<g id="Group_2">
<g id="Group_3">
<g id="Group_4">
<path id="Vector_4" d="M124.321 15.2247C124.309 15.4014 124.206 15.5604 124.02 15.7195C123.948 15.7783 123.87 15.8372 123.798 15.8902C123.732 15.9433 123.672 15.9963 123.606 16.0434C123.354 16.2377 123.089 16.3614 122.813 16.4085C121.75 16.5911 121.065 16.6147 120.795 16.4792C120.482 16.3261 120.398 15.743 120.362 15.5251V15.4544C120.32 15.2718 120.212 14.889 120.206 14.8831C120.206 14.8714 120.2 14.8655 120.2 14.8596C120.212 14.8242 120.284 14.7771 120.32 14.7477L120.362 14.7064C120.675 14.4296 121.059 14.141 121.576 14.0704C121.756 14.0468 121.924 13.982 122.086 13.9231C122.164 13.8878 122.242 13.8642 122.326 13.8407C122.459 13.7936 122.573 13.7936 122.663 13.8289C123.155 14.0115 123.702 14.2588 124.122 14.7182C124.273 14.889 124.345 15.0598 124.333 15.2306L124.321 15.2247Z" fill="#FFE888"/>
<path id="Vector_5" d="M122.525 18.2873C122.344 18.4286 122.146 18.6112 121.978 18.8409C121.846 19.0235 121.648 19.0883 121.449 19.1354C121.437 19.1354 121.431 19.1413 121.425 19.1413L120.789 19.3239C120.747 19.3415 120.681 19.3592 120.591 19.3828H120.567C120.032 19.53 119.588 19.4711 119.155 19.2002C118.663 18.8939 118.5 18.4404 118.663 17.8868C118.843 17.3273 119.179 16.9857 119.696 16.8502C119.756 16.8326 119.81 16.7972 119.846 16.7737C119.864 16.756 119.906 16.7266 119.918 16.7266C119.966 16.7501 120.002 16.809 120.044 16.862C120.068 16.8974 120.092 16.9209 120.11 16.9445C120.368 17.2566 120.705 17.4098 121.107 17.4098H121.125C121.492 17.4098 121.846 17.3862 122.116 17.3567C122.441 17.3391 122.597 17.4215 122.711 17.6866C122.795 17.8927 122.729 18.1047 122.519 18.2814L122.525 18.2873Z" fill="#F4D13D"/>
<path id="Vector_6" d="M118.008 19.359C118.008 19.359 117.996 19.3708 117.99 19.3767C117.84 19.5887 117.359 19.7595 117.005 19.8361C116.999 19.8361 116.987 19.842 116.969 19.842C116.843 19.895 116.692 19.9185 116.47 19.9185C115.761 20.0245 115.587 19.9303 115.581 19.9303C115.569 19.9126 115.545 19.895 115.521 19.8891C115.485 19.8832 115.437 19.8655 115.347 19.8302C114.957 19.6653 114.572 19.5004 114.188 19.3355C114.02 19.2707 113.978 19.2 113.978 19.1823C114.014 18.6051 114.596 17.8631 115.203 17.8513L115.605 17.8395C115.852 17.8277 116.086 17.8218 116.326 17.8159C116.47 17.8101 116.632 17.8218 116.765 17.8866C116.867 17.9337 116.951 17.9455 117.029 17.9102C117.119 17.8748 117.185 17.8042 117.239 17.6805L117.257 17.6275C117.275 17.5745 117.299 17.5156 117.323 17.4626C117.329 17.4449 117.335 17.4449 117.341 17.4508C117.335 17.5862 117.365 17.6923 117.443 17.7629C117.509 17.8395 117.617 17.8748 117.756 17.8689C117.653 18.293 117.798 18.6758 117.924 19.0174C117.948 19.0881 117.972 19.1705 117.984 19.253L117.996 19.3237L118.002 19.3472L118.008 19.359Z" fill="#FFE888"/>
<path id="Vector_7" d="M118.296 15.9848C117.834 16.4795 117.287 16.8035 116.68 16.9507C116.566 16.9861 116.446 16.9861 116.314 16.9919C116.254 16.9919 116.188 16.9919 116.134 16.9978C115.852 16.9978 115.473 16.9743 115.119 16.7799C114.518 16.4383 114.404 15.5313 114.716 14.9836C114.885 14.6832 115.095 14.4889 115.371 14.3888C115.677 14.2769 116.008 14.2062 116.356 14.1826H116.41C116.62 14.1826 116.801 14.271 116.909 14.4476C117.125 14.8069 117.443 15.0013 117.906 15.0602C118.158 15.0837 118.35 15.2251 118.428 15.4253C118.5 15.6197 118.446 15.8258 118.29 15.9966L118.296 15.9848Z" fill="#F4D13D"/>
<path id="Vector_8" d="M120.975 13.3283C120.633 13.7346 120.182 13.9879 119.702 14.2588L119.66 14.2824C119.263 14.3707 118.945 14.3472 118.933 14.3472C118.494 14.3589 118.146 14.2765 117.834 14.0998C117.569 13.9584 117.365 13.5874 117.329 13.1987C117.311 12.9867 117.335 12.5803 117.702 12.2917C117.888 12.1386 118.062 12.0384 118.23 11.9678L118.344 11.9148C118.344 11.9148 118.591 11.7793 118.993 11.7793C119.017 11.7793 119.047 11.7852 119.071 11.7852C119.257 11.8087 119.443 11.8205 119.618 11.8264C119.756 11.8323 119.9 11.8323 120.044 11.8441C120.128 11.8559 120.194 11.8618 120.23 11.8676C120.236 11.8735 120.248 11.8794 120.266 11.8794C120.32 11.8912 120.501 11.9501 120.717 12.1445C120.969 12.3741 120.999 12.4566 121.035 12.5449C121.035 12.5567 121.041 12.5685 121.047 12.5803C121.239 12.8159 121.221 13.0279 120.975 13.3283Z" fill="#F4D13D"/>
</g>
<path id="Vector_9" d="M136.946 15.4304C136.88 15.2007 136.742 15.0534 136.519 14.9769C136.309 14.9062 136.105 14.8414 135.907 14.7472C135.21 14.4233 134.447 14.1052 133.63 13.958C133.09 13.8579 132.531 13.7695 131.997 13.6871C131.474 13.6046 130.928 13.5221 130.399 13.4279C129.588 13.2807 128.723 13.2218 127.84 13.2512C128.321 12.945 128.615 12.4915 128.837 12.091C128.909 11.9673 128.975 11.8377 129.042 11.714C129.114 11.5786 129.186 11.4431 129.264 11.3136C129.582 10.754 129.54 10.2652 129.12 9.78816C128.951 9.5938 128.753 9.52902 128.507 9.58202C127.924 9.69981 127.336 9.88828 126.585 10.1769C126.345 10.2711 126.098 10.3536 125.858 10.4242C125.39 10.5774 124.903 10.7305 124.453 11.0132C124.459 11.0014 124.459 10.9896 124.465 10.9837L124.483 10.9425C124.615 10.6009 124.747 10.2652 124.879 9.92362C125.137 9.27576 125.402 8.60435 125.642 7.93294C125.828 7.41466 126.002 6.8846 126.17 6.37221C126.381 5.74202 126.591 5.08828 126.825 4.4581C127.101 3.71601 127.035 3.0446 126.627 2.41441C126.525 2.26129 126.375 2.0257 126.074 1.99625C125.438 1.94325 124.933 2.13172 124.591 2.56754L124.495 2.68533C124.158 3.10938 123.81 3.54521 123.438 3.95159C123.065 4.35797 122.657 4.75257 122.266 5.1354C121.882 5.50055 121.491 5.88337 121.125 6.27797C121.113 6.28975 121.101 6.30153 121.089 6.31331C121.083 6.31331 121.083 6.3192 121.077 6.3192C120.993 6.06006 120.903 5.80681 120.813 5.55356C120.735 5.33564 120.657 5.11773 120.584 4.89981C120.434 4.46987 120.206 4.07527 119.906 3.73368C119.545 3.3273 119.131 3.2684 118.668 3.5511C117.99 3.96926 117.491 4.61122 117.149 5.51822C116.824 6.36632 116.824 7.24975 116.843 8.08607C116.849 8.19797 116.849 8.30398 116.849 8.41589C116.818 8.3511 116.794 8.28632 116.764 8.22153C116.608 7.8446 116.44 7.45 116.182 7.1084C116.02 6.90227 115.857 6.70202 115.689 6.49589C115.461 6.21319 115.227 5.9246 115.005 5.63012C114.326 4.69368 113.509 3.79257 112.362 2.703C111.809 2.18472 111.209 1.65466 110.41 0.983249C110.32 0.912574 110.235 0.836009 110.151 0.765335C109.905 0.55331 109.653 0.335396 109.383 0.14693C109.28 0.0821444 108.986 -0.118101 108.71 0.0939235C108.295 0.41785 108.085 0.777114 108.061 1.18938C108.037 1.61932 108.091 2.05515 108.145 2.42619C108.223 2.93859 108.361 3.42742 108.542 4.01049C108.692 4.49343 108.86 5.00583 109.112 5.48877C109.316 5.85981 109.533 6.26619 109.677 6.70202C109.815 7.12607 110.013 7.56779 110.296 8.09785C110.638 8.73981 111.034 9.35822 111.419 9.95895C111.587 10.224 111.755 10.4831 111.923 10.754C112.049 10.9484 112.176 11.1663 112.296 11.4078C112.254 11.3842 112.212 11.3607 112.164 11.343C111.112 10.8777 110.139 10.5832 109.19 10.4419C109.13 10.4301 109.064 10.4242 108.998 10.4183L108.872 10.4007C107.863 10.2475 106.944 10.2829 106.061 10.4949C105.917 10.5302 105.791 10.6009 105.677 10.701C105.358 10.9837 105.304 11.6316 105.568 12.0556C105.851 12.515 106.265 12.8566 106.662 13.1805L106.728 13.2336C106.8 13.2983 106.878 13.3631 106.95 13.4279C107.226 13.6635 107.515 13.8991 107.827 14.1111C107.581 14.064 107.34 14.0404 107.094 14.0404C106.181 14.0404 105.43 14.4468 104.86 15.2537C104.71 15.4657 104.65 15.6954 104.692 15.9074C104.734 16.1312 104.884 16.3315 105.124 16.4905C105.256 16.5788 105.406 16.6495 105.556 16.7202C105.911 16.8851 106.271 17.0382 106.62 17.1619C106.956 17.2856 107.244 17.4858 107.545 17.6979C107.635 17.7626 107.731 17.8274 107.821 17.8863C108.211 18.1455 108.614 18.2868 109.046 18.3163C109.106 18.3163 109.166 18.3221 109.226 18.328C109.335 18.3339 109.443 18.3457 109.545 18.3457C109.521 18.3634 109.503 18.381 109.479 18.3987C109.395 18.4517 109.31 18.5106 109.232 18.5695C108.536 19.1055 107.857 19.7474 107.034 20.6603C106.277 21.5025 105.701 22.439 105.328 23.4402C104.914 24.5592 104.842 25.5663 105.112 26.5086C105.328 27.2625 105.478 27.6277 106.566 27.6925C107.208 27.7278 107.599 27.5158 107.839 27.0034C107.977 26.703 108.205 26.438 108.53 26.1906C108.848 25.955 109.148 25.6547 109.425 25.3013C109.995 24.5592 110.776 23.6051 111.719 22.7982C111.761 22.7629 111.809 22.7275 111.857 22.6981C111.875 22.6863 111.899 22.6686 111.917 22.6569L111.881 22.7864C111.815 23.0044 111.749 23.2282 111.695 23.452C111.473 24.3531 111.329 25.3072 111.275 26.2966C111.208 27.4981 111.227 28.4934 111.329 29.4358C111.377 29.8421 111.479 30.3663 111.833 30.8139L111.857 30.8434C111.941 30.9494 112.049 31.079 112.23 31.079H112.254C112.614 31.0495 113.076 30.9729 113.425 30.5901C113.515 30.49 113.605 30.3899 113.689 30.2898C113.779 30.1896 113.863 30.0895 113.953 29.9953L114.146 29.7832C114.56 29.3239 114.987 28.8468 115.323 28.3109C115.341 28.2814 115.353 28.2696 115.353 28.2637C115.359 28.2696 115.371 28.2814 115.383 28.305C115.425 28.3756 115.479 28.4345 115.533 28.4934L115.563 28.5288C115.647 28.6171 115.725 28.6583 115.815 28.6642C115.893 28.6701 115.978 28.6289 116.056 28.5582C116.146 28.4758 116.236 28.3992 116.326 28.3226C116.68 28.0105 117.047 27.6925 117.275 27.239C117.311 27.1742 117.359 27.1094 117.425 27.0446C117.443 27.021 117.84 26.4969 117.996 26.2024L118.008 26.1847C118.008 26.1847 118.02 26.1553 118.026 26.1494C118.254 25.6606 118.386 25.2129 118.434 24.7889C118.44 24.73 118.458 24.6829 118.506 24.624C118.548 24.5769 118.608 24.5062 118.656 24.4944C118.729 24.6475 119.227 25.6606 119.551 26.061C119.569 26.0846 119.587 26.1082 119.605 26.1317L119.647 26.1788C119.858 26.4498 120.074 26.7266 120.308 26.9857C120.993 27.7337 121.738 28.5229 122.633 29.1648C123.42 29.7302 124.2 30.0895 125.017 30.2544C125.54 30.3663 126.02 29.9717 126.122 29.5536C126.2 29.2237 126.14 28.9175 126.062 28.6053C125.99 28.3226 125.924 28.0399 125.858 27.7513C125.75 27.3037 125.642 26.8385 125.522 26.385C125.269 25.4544 124.939 24.3766 124.345 23.3813L124.399 23.399C124.483 23.4343 124.567 23.4637 124.657 23.4991L124.867 23.5756C125.3 23.7405 125.744 23.9055 126.2 24.0233C127.053 24.2353 127.894 24.2176 128.831 24.1705C129.402 24.1469 129.9 23.9467 130.315 23.5756C130.459 23.452 130.495 23.3106 130.423 23.1339C130.369 22.9985 130.279 22.8983 130.183 22.8041L130.135 22.7452C129.985 22.5862 129.84 22.4272 129.69 22.2682C129.39 21.9501 129.078 21.6262 128.807 21.2787C128.729 21.1727 128.645 21.0726 128.567 20.9666C128.237 20.5366 127.894 20.0949 127.498 19.7003C127.39 19.5943 127.3 19.4706 127.204 19.341L127.131 19.2468C127.131 19.2468 127.125 19.235 127.119 19.235H127.131C127.69 19.2939 128.249 19.2704 128.831 19.1585C129.732 18.9936 130.627 18.8581 131.498 18.7344C131.72 18.6991 131.937 18.6696 132.159 18.6402C132.621 18.5754 133.102 18.5106 133.57 18.4164C133.787 18.3752 133.985 18.2927 134.183 18.2044C134.579 18.0218 134.916 17.8863 135.252 17.7862C135.649 17.6566 136.153 17.4564 136.513 17.0205C136.952 16.4964 137.096 15.9781 136.946 15.4304ZM125.996 11.1015L126.122 11.0603C126.333 10.9837 126.537 10.9131 126.741 10.8424C127.246 10.6716 127.774 10.489 128.279 10.277C128.381 10.2299 128.477 10.2299 128.549 10.277C128.639 10.3359 128.693 10.4713 128.693 10.6363C128.693 10.7776 128.585 10.9543 128.513 11.0721C128.189 11.6198 127.804 12.2559 127.366 12.839C127.168 13.1158 126.891 13.2983 126.543 13.3867C126.423 13.422 126.303 13.4515 126.182 13.4809C125.81 13.5693 125.432 13.6576 125.077 13.8343C124.489 14.1347 124.062 14.4409 123.732 14.8061L123.702 14.8414L123.648 14.8944C123.486 15.0593 123.486 15.0652 123.323 14.9239C122.879 14.5587 122.495 14.3467 122.092 14.2348C122.098 14.2289 122.104 14.2289 122.11 14.223C122.236 14.1288 122.356 14.0345 122.483 13.9403L122.723 13.7636C122.945 13.5928 123.137 13.3867 123.317 13.1864C123.432 13.0628 123.552 12.9391 123.672 12.8213C123.744 12.7565 123.822 12.6976 123.9 12.6387C124.062 12.515 124.224 12.3913 124.326 12.2147C124.693 11.5609 125.33 11.3371 125.996 11.1015ZM117.419 15.8191C117.647 15.8426 117.822 15.9663 117.894 16.1489C117.96 16.3256 117.912 16.514 117.767 16.6672C117.347 17.1148 116.855 17.4093 116.302 17.5447C116.2 17.5742 116.092 17.5742 115.972 17.5801C115.918 17.5801 115.857 17.5801 115.809 17.5859C115.551 17.5859 115.209 17.5624 114.89 17.3857C114.344 17.0736 114.242 16.2549 114.524 15.7543C114.674 15.4834 114.866 15.3067 115.119 15.2125C115.395 15.1123 115.695 15.0475 116.014 15.024H116.062C116.254 15.024 116.416 15.1064 116.512 15.2655C116.71 15.5894 116.999 15.7661 117.419 15.8191ZM117.233 13.316C117.401 13.1747 117.557 13.0863 117.713 13.0215L117.816 12.9744C117.816 12.9744 118.038 12.8507 118.404 12.8507C118.428 12.8507 118.452 12.8566 118.476 12.8566C118.644 12.8802 118.813 12.8861 118.975 12.892C119.101 12.892 119.233 12.892 119.359 12.9096C119.437 12.9214 119.497 12.9273 119.527 12.9332C119.527 12.9332 119.545 12.945 119.557 12.945C119.605 12.9567 119.768 13.0098 119.966 13.1864C120.194 13.3926 120.224 13.4691 120.254 13.5516C120.254 13.5634 120.26 13.5752 120.266 13.581C120.44 13.7931 120.422 13.9874 120.2 14.2583C119.888 14.6294 119.479 14.8591 119.047 15.1005L119.011 15.1241C118.65 15.2066 118.362 15.183 118.35 15.183C117.954 15.1948 117.635 15.1182 117.353 14.9592C117.113 14.8296 116.927 14.4939 116.897 14.1405C116.879 13.9462 116.903 13.581 117.233 13.316ZM118.278 16.8439C118.434 16.5317 118.482 16.2549 118.434 15.9722C118.428 15.9428 118.428 15.931 118.422 15.9251H118.476C118.512 15.9251 118.554 15.931 118.59 15.9192C118.825 15.9192 118.861 15.9428 118.927 16.143C118.975 16.2785 119.011 16.4198 119.041 16.5612L119.071 16.6907C119.083 16.7261 119.077 16.7555 119.023 16.7791L118.969 16.8026C118.873 16.8498 118.777 16.8969 118.68 16.9204C118.374 16.997 118.116 17.156 117.882 17.3975L117.852 17.4269C117.78 17.5035 117.713 17.5742 117.623 17.6095C117.918 17.3975 118.14 17.1383 118.278 16.8439ZM118.098 18.3928C118.26 17.8863 118.566 17.5742 119.035 17.4505C119.089 17.4328 119.137 17.4034 119.173 17.3798C119.191 17.3621 119.227 17.3386 119.239 17.3386C119.281 17.3621 119.317 17.4152 119.353 17.4623C119.377 17.4917 119.395 17.5153 119.413 17.5388C119.647 17.8215 119.954 17.9629 120.32 17.9629H120.338C120.669 17.9629 120.993 17.9393 121.239 17.9158C121.534 17.8981 121.678 17.9747 121.78 18.2161C121.858 18.4046 121.798 18.5931 121.606 18.758C121.443 18.8875 121.263 19.0525 121.107 19.2586C120.987 19.4235 120.807 19.4824 120.627 19.5236C120.615 19.5236 120.609 19.5295 120.603 19.5295L120.026 19.6944C119.99 19.7121 119.93 19.7239 119.846 19.7474H119.822C119.335 19.8829 118.933 19.8299 118.542 19.5825C118.098 19.3057 117.948 18.8934 118.098 18.3928ZM120.032 17.1148C119.75 16.9734 119.672 16.4493 119.641 16.249V16.1842C119.605 16.0193 119.503 15.6718 119.497 15.6659C119.497 15.6542 119.497 15.6483 119.497 15.6424C119.509 15.6129 119.575 15.5658 119.605 15.5423L119.641 15.5069C119.924 15.2537 120.272 14.9945 120.741 14.9298C120.903 14.9062 121.059 14.8473 121.203 14.7943C121.275 14.7648 121.347 14.7413 121.419 14.7177C121.54 14.6765 121.642 14.6765 121.726 14.7059C122.17 14.8709 122.669 15.0947 123.047 15.5128C123.185 15.6659 123.251 15.825 123.239 15.9781C123.227 16.1371 123.137 16.2844 122.969 16.4257C122.903 16.4787 122.831 16.5317 122.765 16.5788C122.705 16.6259 122.651 16.6731 122.591 16.7202C122.362 16.8969 122.122 17.0088 121.87 17.05C120.903 17.2149 120.284 17.2385 120.038 17.1148H120.032ZM122.14 18.6991C122.158 18.6225 122.188 18.5401 122.23 18.4635C122.302 18.3398 122.38 18.1808 122.38 17.9864C122.38 17.8922 122.362 17.7921 122.314 17.6861C122.477 17.5683 122.633 17.4564 122.789 17.3327C122.855 17.2856 122.927 17.2679 122.999 17.2915C123.107 17.315 123.185 17.3857 123.221 17.4976C123.221 17.4976 123.281 17.6095 123.287 17.8098C123.287 18.01 123.233 18.1631 123.125 18.2574C123.113 18.2633 123.107 18.2691 123.095 18.275C123.095 18.275 123.077 18.2927 123.065 18.2986C122.999 18.3457 122.933 18.3987 122.867 18.4458C122.699 18.5813 122.531 18.705 122.326 18.7462L122.2 18.7639C122.152 18.7756 122.14 18.758 122.14 18.758C122.14 18.758 122.128 18.7462 122.14 18.6991ZM120.729 7.74448C120.729 7.74448 120.759 7.72092 120.765 7.70914L121.383 6.95527L121.491 6.84926L122.308 6.07773C122.477 5.89515 122.657 5.72435 122.837 5.55944C123.035 5.38276 123.233 5.19429 123.414 4.99405C123.642 4.74079 123.876 4.49343 124.11 4.25196C124.206 4.15184 124.302 4.04583 124.399 3.9457C124.627 3.70423 124.807 3.44509 124.945 3.18006C125.089 2.89736 125.552 2.63233 125.882 2.65C125.93 2.65589 125.96 2.67356 125.996 2.73245C126.194 3.03282 126.291 3.32141 126.291 3.62178C126.291 3.82791 126.249 4.02227 126.164 4.20484C125.798 5.04705 125.528 5.93638 125.269 6.79625C125.215 6.96705 125.161 7.13785 125.113 7.30865C124.711 8.61024 124.206 10.1415 123.534 11.5845C123.269 12.1617 123.011 12.674 122.579 13.0863C122.422 13.2394 122.242 13.4102 122.038 13.5339C121.756 13.6988 121.473 13.8991 121.203 14.1347C121.071 14.2466 120.915 14.2701 120.741 14.2937C120.759 14.2289 120.783 14.17 120.813 14.1111C121.035 13.581 120.939 13.2159 120.482 12.8566C120.194 12.6328 119.882 12.4031 119.467 12.356C119.347 12.3383 119.257 12.25 119.179 12.0674C118.987 11.6257 118.939 11.1722 119.035 10.7305C119.239 9.80583 119.678 8.96362 120.326 8.22742C120.422 8.1273 120.506 8.0154 120.572 7.90349C120.615 7.83282 120.669 7.77392 120.729 7.74448ZM117.353 7.98595C117.353 7.8446 117.365 7.70325 117.365 7.5619C117.377 7.48533 117.431 7.11429 117.491 6.77859L117.521 6.59601C117.635 5.9776 117.749 5.39454 118.152 4.9057C118.404 4.59944 118.71 4.35797 119.065 4.19306C119.179 4.13417 119.359 4.09294 119.575 4.3403C119.726 4.51699 119.852 4.72313 119.942 4.9646C120.098 5.37687 120.248 5.78914 120.398 6.2073L120.524 6.56656C120.603 6.76681 120.572 6.90816 120.434 7.0554C120.02 7.50889 119.503 8.07429 119.125 8.70448C118.638 9.52313 118.368 10.2358 118.278 10.9425C118.212 11.449 118.284 11.9202 118.5 12.3266C118.506 12.3442 118.518 12.3619 118.518 12.3737H118.482C118.398 12.3678 118.32 12.3796 118.23 12.3855C118.194 12.3913 118.158 12.3913 118.098 12.4031C118.056 12.409 118.044 12.409 118.044 12.409C118.044 12.409 118.032 12.3855 118.032 12.3207C118.032 11.8377 117.948 11.3666 117.773 10.8777C117.521 10.1769 117.425 9.43478 117.359 8.79871C117.335 8.53368 117.347 8.25098 117.359 7.98595H117.353ZM106.728 12.2147C106.542 12.0556 106.367 11.8672 106.217 11.6552C106.133 11.5491 106.103 11.4608 106.127 11.3901C106.145 11.3194 106.223 11.2547 106.355 11.1958C106.902 10.9779 107.491 10.8542 108.115 10.8424C108.157 10.8424 108.193 10.8365 108.229 10.8365C108.884 10.8365 109.575 10.9779 110.374 11.2606C110.506 11.3077 110.632 11.3548 110.758 11.396C111.1 11.5138 111.455 11.6316 111.785 11.8024C112.23 12.0203 112.632 12.3207 113.016 12.6093C113.101 12.674 113.179 12.7329 113.263 12.7918C113.341 12.8507 113.425 12.9155 113.503 12.9744C113.671 13.104 113.845 13.2336 114.026 13.3513C114.374 13.5869 114.746 13.7106 115.143 13.7224H115.371C115.539 13.7342 115.713 13.7342 115.887 13.7342C115.99 13.7342 116.08 13.6871 116.122 13.6105C116.164 13.5398 116.158 13.4397 116.098 13.3455C116.008 13.1982 115.869 13.1099 115.707 13.104C114.782 13.051 114.17 12.4974 113.641 11.9084C113.251 11.4785 112.962 10.972 112.68 10.4772L112.632 10.3948C112.272 9.7646 111.863 9.1403 111.473 8.53957C111.353 8.35699 111.233 8.17441 111.112 7.98595C110.95 7.7327 110.824 7.47944 110.74 7.23208C110.56 6.67846 110.314 6.14251 110.073 5.63012C109.983 5.44165 109.893 5.2473 109.809 5.05883C109.659 4.72313 109.533 4.37564 109.413 4.03405L109.304 3.71601C109.172 3.35675 109.088 2.99748 108.998 2.5911C108.896 2.14938 108.854 1.67822 108.866 1.14816C108.866 1.04214 108.884 0.953801 108.92 0.871347C108.956 0.783003 108.986 0.765335 109.004 0.759445C109.016 0.759445 109.046 0.759445 109.124 0.806562C109.341 0.942022 109.551 1.11282 109.749 1.27184C109.821 1.33073 109.893 1.38963 109.959 1.44852C111.233 2.46742 112.164 3.29785 112.968 4.15773C113.653 4.87626 114.332 5.68313 115.125 6.69024C115.996 7.80926 116.488 9.06963 116.861 10.1592C116.909 10.3005 116.957 10.4419 117.011 10.5774C117.143 10.9307 117.281 11.2959 117.335 11.6728C117.359 11.8613 117.383 12.0615 117.371 12.2677C117.353 12.5916 117.203 12.8272 116.933 12.9626C116.314 13.2807 116.278 13.8402 116.308 14.2289V14.2642C116.314 14.3231 116.32 14.382 116.314 14.3938C116.302 14.4056 116.224 14.4232 116.164 14.4291C115.491 14.5469 114.963 14.7295 114.506 15.0122C114.398 15.0711 114.326 15.1418 114.266 15.2242C114.14 15.4127 113.947 15.5128 113.683 15.5246C113.197 15.5482 112.758 15.5069 112.35 15.3891C112.176 15.3361 112.007 15.289 111.833 15.2419C111.473 15.1418 111.1 15.0358 110.74 14.918C110.115 14.7059 109.497 14.3585 108.836 13.8579L108.464 13.581C107.887 13.1452 107.286 12.6917 106.728 12.2147ZM109.1 17.6154C108.578 17.6036 108.187 17.2974 107.863 17.0147C107.863 17.0147 107.851 17.0029 107.845 17.0029C107.671 16.8262 107.19 16.6201 106.806 16.4669C106.8 16.4669 106.788 16.461 106.782 16.461C106.626 16.4257 106.475 16.3786 106.325 16.3079C106.109 16.2019 105.869 16.1018 105.593 16.0017C105.508 15.9722 105.454 15.9369 105.442 15.9015C105.424 15.8662 105.442 15.8014 105.484 15.719C105.647 15.4009 105.917 15.1536 106.361 14.918C106.626 14.7825 106.926 14.7059 107.19 14.7059H107.262C107.575 14.7059 107.785 14.7472 107.965 14.8532C108.319 15.0534 108.71 15.1359 109.088 15.2066L109.202 15.2301C109.485 15.289 109.755 15.4068 110.013 15.5187C110.091 15.554 110.175 15.5894 110.253 15.6188C111.233 16.0311 112.29 16.2608 113.395 16.3079H113.449C113.449 16.3079 113.491 16.3079 113.503 16.3138C113.551 16.3256 113.599 16.3197 113.647 16.3138C113.731 16.3079 113.737 16.3138 113.749 16.3491C113.809 16.5023 113.749 16.7084 113.641 16.7967C113.521 16.891 113.371 16.9086 113.209 16.9263H113.161C112.83 16.9734 112.554 17.0441 112.308 17.1383C111.971 17.2738 111.635 17.4034 111.299 17.5329C111.034 17.6331 110.776 17.7391 110.512 17.8392C110.452 17.8628 110.422 17.8686 110.392 17.8569C109.971 17.6684 109.521 17.6272 109.1 17.6154ZM111.437 22.0267C110.53 22.7747 109.761 23.6581 109.124 24.4179C108.722 24.9126 108.271 25.3661 107.845 25.7783C107.515 26.0964 107.256 26.4144 107.064 26.7442C106.95 26.9327 106.806 27.0152 106.602 26.9916C106.043 26.9386 105.917 26.8797 105.797 26.3614C105.725 26.0316 105.707 25.6959 105.701 25.2954C105.677 24.7653 105.869 24.1764 106.043 23.7229C106.499 22.4979 107.298 21.3671 108.47 20.2539C109.455 19.3234 110.44 18.652 111.485 18.1867C112.182 17.8804 112.782 17.7214 113.371 17.6861C113.431 17.6861 113.503 17.6861 113.569 17.6507C113.629 17.6213 113.683 17.6095 113.743 17.6095C113.857 17.6095 113.971 17.6684 114.122 17.8039C114.2 17.8745 114.29 17.9511 114.29 17.9806C114.29 18.01 114.194 18.1042 114.122 18.169C113.857 18.4223 113.635 18.705 113.467 19.0053C113.119 19.6296 113.179 20.089 113.671 20.5896C113.701 20.6191 113.707 20.6309 113.713 20.6367C113.707 20.6367 113.701 20.6485 113.671 20.6721C113.593 20.7251 113.503 20.7722 113.389 20.8134C112.62 21.0902 111.977 21.585 111.437 22.0267ZM114.65 28.0517C114.554 28.1636 114.464 28.2873 114.38 28.4051C114.338 28.464 114.296 28.5229 114.248 28.5818C113.821 29.1413 113.377 29.6478 112.92 30.1013C112.86 30.1602 112.788 30.2191 112.698 30.2839C112.53 30.3958 112.476 30.3899 112.356 30.2309C112.2 30.0306 112.103 29.7891 112.061 29.4947C112.007 29.1531 111.995 28.7997 111.977 28.4581C111.965 28.2107 111.953 27.9634 111.929 27.716C111.887 27.1329 111.905 26.5322 111.983 25.9256C112.007 25.7194 112.031 25.5133 112.055 25.3013C112.121 24.6711 112.194 24.0174 112.374 23.3931C112.554 22.7806 112.776 22.3212 113.089 21.9501C113.233 21.7675 113.389 21.6556 113.569 21.5967C113.911 21.4907 114.17 21.2787 114.41 21.0726C114.512 20.9783 114.602 20.9371 114.698 20.9371C114.728 20.9371 114.758 20.943 114.794 20.9548C114.89 20.9783 114.902 21.0196 114.89 21.0844C114.884 21.1197 114.878 21.155 114.872 21.1904C114.866 21.2493 114.854 21.3082 114.836 21.3671C114.692 21.8618 114.638 22.3624 114.602 22.9631C114.566 23.6228 114.548 24.1646 114.548 24.6711C114.554 25.4485 114.662 26.1847 114.866 26.862C115.017 27.345 114.95 27.7101 114.65 28.0517ZM115.095 20.1656C114.74 20.0183 114.392 19.8652 114.044 19.718C113.893 19.6591 113.851 19.5943 113.851 19.5766C113.881 19.0525 114.41 18.381 114.962 18.3693L115.329 18.3575C115.551 18.3457 115.767 18.3398 115.984 18.3339C116.116 18.328 116.26 18.3398 116.38 18.3987C116.47 18.4399 116.548 18.4517 116.62 18.4223C116.704 18.3928 116.764 18.328 116.812 18.2161L116.83 18.169C116.849 18.1219 116.867 18.0689 116.891 18.0218C116.897 18.0041 116.903 18.0041 116.909 18.01C116.909 18.1337 116.933 18.2279 116.999 18.2927C117.059 18.3634 117.155 18.3928 117.281 18.3869C117.191 18.7698 117.317 19.1172 117.431 19.4294C117.455 19.4942 117.473 19.5707 117.485 19.6414L117.497 19.7062L117.503 19.7298C117.497 19.7356 117.491 19.7415 117.485 19.7474C117.347 19.9418 116.915 20.0949 116.59 20.1656C116.584 20.1656 116.572 20.1715 116.56 20.1715C116.446 20.2186 116.308 20.2421 116.11 20.2421C115.467 20.3364 115.311 20.2539 115.305 20.2539C115.293 20.2363 115.275 20.2245 115.251 20.2186C115.221 20.2127 115.173 20.195 115.095 20.1656ZM117.701 25.0893C117.323 26.0375 116.782 26.8797 116.086 27.5923C116.08 27.5923 116.068 27.61 116.068 27.61C116.044 27.6277 116.026 27.6512 116.002 27.6689C115.978 27.6983 115.924 27.7455 115.912 27.7513C115.881 27.7337 115.863 27.7101 115.851 27.6807C115.851 27.663 115.851 27.6689 115.839 27.6571C115.725 27.4215 115.581 26.809 115.533 26.6206C115.341 25.8313 115.251 25.0304 115.275 24.2412C115.281 24.0468 115.281 23.8525 115.281 23.6581C115.281 23.3401 115.281 23.0161 115.305 22.6981C115.347 22.1621 115.491 21.638 115.617 21.2434C115.677 21.0608 115.749 21.0196 116.014 21.0196H116.098C116.224 21.0313 116.362 21.0372 116.38 21.0549C116.392 21.0726 116.386 21.1609 116.386 21.2375C116.38 21.2787 116.38 21.3258 116.38 21.3729C116.356 22.2269 116.686 22.9749 117.035 23.6758C117.041 23.6934 117.053 23.717 117.065 23.7347C117.095 23.7759 117.119 23.8171 117.131 23.8642C117.191 24.0645 117.335 24.1882 117.449 24.2706C117.767 24.5003 117.84 24.7359 117.701 25.0893ZM118.704 22.8571L118.65 22.9749C118.524 23.2576 118.392 23.5462 118.194 23.7936C118.14 23.8642 118.074 23.8996 118.014 23.8996H118.002C117.942 23.8937 117.888 23.8525 117.852 23.7818C117.521 23.1398 117.179 22.4743 117.035 21.7381C116.933 21.1904 117.047 20.8134 117.413 20.5248C117.479 20.4718 117.539 20.4188 117.599 20.3658C117.653 20.3128 117.701 20.2657 117.761 20.2186C117.81 20.1833 117.852 20.1656 117.9 20.1656C117.942 20.1656 117.99 20.1833 118.032 20.2245C118.194 20.3717 118.374 20.4601 118.608 20.5013C118.837 20.5425 118.969 20.6956 119.005 20.9607C119.017 21.0667 119.029 21.1845 119.035 21.2964C119.041 21.3553 119.047 21.4201 119.047 21.4731C119.071 21.9913 118.891 22.4625 118.704 22.8571ZM125.288 28.2107L125.312 28.3167C125.39 28.6466 125.462 28.9528 125.498 29.2532C125.498 29.3945 125.456 29.5005 125.378 29.5594C125.306 29.6066 125.209 29.6125 125.095 29.5771C124.753 29.4652 124.393 29.3415 123.948 29.1825C123.732 29.1059 123.534 28.9823 123.293 28.782C123.077 28.5936 122.849 28.4169 122.627 28.2402C122.182 27.8927 121.726 27.5275 121.341 27.0976C120.639 26.2966 120.02 25.5604 119.539 24.7006C119.419 24.4767 119.347 24.2353 119.269 23.982C119.227 23.823 119.179 23.6581 119.113 23.505C119.095 23.4402 119.131 23.3636 119.155 23.3283C119.569 22.6569 119.726 21.8853 119.66 20.837C119.641 20.5543 119.678 20.5072 119.972 20.4424C120.08 20.4129 120.194 20.3953 120.308 20.3717C120.392 20.3599 120.482 20.3423 120.566 20.3246C120.771 20.2834 120.945 20.1832 121.119 20.0831L121.191 20.0478C121.191 20.0478 121.215 20.0301 121.221 20.0301C121.221 20.0301 121.221 20.034 121.221 20.0419C121.353 20.5837 121.678 21.0196 121.996 21.4377L122.044 21.5084C122.218 21.7322 122.38 21.9442 122.513 22.1798C122.561 22.2623 122.615 22.3447 122.705 22.3977C123.227 22.704 123.48 23.2046 123.744 23.7288C124.363 24.9597 124.837 26.3437 125.281 28.2107H125.288ZM127.228 20.3246C127.228 20.3246 127.228 20.3305 127.24 20.3364C127.552 20.6898 127.84 21.0726 128.111 21.4495L128.285 21.6792C128.705 22.2564 129.084 22.704 129.462 23.0868C129.54 23.1634 129.564 23.1987 129.564 23.1987C129.552 23.2223 129.444 23.2694 129.408 23.2871C129.054 23.4637 128.663 23.505 128.195 23.5109H128.159C126.687 23.5109 125.408 23.2046 124.242 22.5862C123.804 22.3506 123.305 22.0856 122.903 21.7028C122.765 21.5673 122.675 21.4024 122.573 21.2316C122.513 21.1374 122.458 21.0372 122.386 20.943C122.272 20.784 122.17 20.6191 122.062 20.4542C122.002 20.3599 121.942 20.2716 121.882 20.1774C121.804 20.0655 121.75 19.93 121.72 19.7769C121.684 19.5707 121.75 19.4588 121.942 19.394C122.044 19.3587 122.146 19.341 122.236 19.341C122.591 19.3234 122.927 19.1997 123.287 18.9582C123.305 18.9464 123.323 18.9347 123.335 18.9229L123.401 18.8581C123.432 18.8345 123.546 18.7756 123.918 18.7756C124.02 18.7756 124.146 18.7815 124.296 18.7933H124.32C124.963 18.7992 125.492 18.8581 125.984 19.1055C126.116 19.1702 126.237 19.2586 126.357 19.3469C126.417 19.394 126.483 19.4412 126.555 19.4942L126.585 19.5295C126.957 19.9889 127.174 20.2598 127.228 20.3246ZM136.147 16.3197C135.943 16.6318 135.661 16.8733 135.306 17.0323C134.165 17.5329 133.144 17.8745 132.177 18.0748C131.69 18.1749 131.186 18.2338 130.681 18.2456C129.997 18.2691 129.342 18.4164 128.735 18.5754C128.207 18.7109 127.678 18.6579 127.228 18.5931C126.729 18.5283 126.237 18.3987 125.756 18.2809C125.48 18.2102 125.209 18.1396 124.933 18.0807C124.819 18.0571 124.699 18.0336 124.585 18.01C124.453 17.9806 124.314 17.9511 124.182 17.9217C124.008 17.8804 123.924 17.7862 123.918 17.6272C123.912 17.3563 123.864 16.9734 123.492 16.7084C123.486 16.7025 123.468 16.6907 123.468 16.679C123.462 16.6672 123.474 16.6436 123.492 16.6259C123.72 16.3609 123.762 16.0311 123.774 15.7484C123.774 15.5599 123.852 15.4304 124.014 15.3185C124.128 15.2419 124.236 15.1594 124.351 15.077C124.507 14.9533 124.669 14.8296 124.831 14.7295C125.486 14.3349 126.225 14.1523 126.867 14.0228C127.234 13.9462 127.6 13.9109 127.96 13.905C128.339 13.9462 128.723 13.9639 129.096 13.9756C129.816 14.0051 130.561 14.0345 131.264 14.2583C131.636 14.3702 132.015 14.3938 132.381 14.4115C132.549 14.4232 132.723 14.4291 132.892 14.4468C133.246 14.488 133.606 14.5646 133.949 14.6353C134.087 14.6647 134.225 14.6942 134.357 14.7177C134.405 14.7295 134.453 14.7472 134.489 14.7766C134.904 15.0711 135.354 15.2242 135.829 15.3774C136.063 15.4539 136.219 15.5717 136.279 15.7307C136.339 15.8956 136.291 16.0959 136.147 16.3197Z" fill="#282828"/>
</g>
<g id="Group_5">
<path id="Vector_10" d="M128.663 10.6192C128.657 10.7606 128.561 10.9372 128.489 11.055C128.159 11.6028 127.774 12.2388 127.336 12.8219C127.137 13.0987 126.861 13.2813 126.513 13.3696C126.393 13.405 126.272 13.4344 126.152 13.4639C125.786 13.5522 125.402 13.6406 125.047 13.8172C124.465 14.1176 124.032 14.4239 123.702 14.789L123.672 14.8244C123.672 14.8244 123.642 14.8597 123.618 14.8774C123.455 15.0423 123.455 15.0482 123.293 14.9068C122.849 14.5417 122.464 14.3296 122.062 14.2177C122.062 14.2118 122.074 14.2118 122.08 14.206C122.206 14.1117 122.332 14.0175 122.452 13.9233L122.693 13.7466C122.921 13.5758 123.107 13.3696 123.293 13.1694C123.401 13.0457 123.522 12.922 123.642 12.8042C123.714 12.7395 123.792 12.6806 123.87 12.6217C124.032 12.498 124.2 12.3743 124.296 12.1976C124.663 11.5439 125.299 11.3201 125.972 11.0845L126.098 11.0433C126.303 10.9667 126.507 10.896 126.711 10.8253C127.222 10.6545 127.744 10.472 128.249 10.2599C128.351 10.2128 128.447 10.2128 128.519 10.2599C128.609 10.3188 128.663 10.4543 128.663 10.6192Z" fill="#EFEDE4"/>
<path id="Vector_11" d="M136.123 16.3024C135.913 16.6146 135.63 16.856 135.276 17.0151C134.141 17.5157 133.114 17.8573 132.147 18.0575C131.66 18.1576 131.156 18.2165 130.651 18.2283C129.966 18.2519 129.312 18.3991 128.705 18.5581C128.177 18.6936 127.648 18.6406 127.198 18.5758C126.699 18.511 126.206 18.3814 125.726 18.2636C125.45 18.193 125.179 18.1223 124.903 18.0634C124.789 18.0398 124.675 18.0163 124.555 17.9927C124.423 17.9633 124.284 17.9338 124.152 17.9044C123.978 17.8632 123.894 17.7689 123.888 17.6099C123.882 17.339 123.834 16.9562 123.462 16.6911C123.462 16.6852 123.438 16.6735 123.438 16.6617C123.438 16.6499 123.444 16.6263 123.462 16.6087C123.696 16.3436 123.732 16.0138 123.744 15.7311C123.75 15.5427 123.828 15.4131 123.984 15.3012C124.098 15.2246 124.212 15.1422 124.32 15.0597C124.477 14.936 124.639 14.8124 124.807 14.7122C125.456 14.3176 126.2 14.1351 126.837 14.0055C127.204 13.9289 127.576 13.8936 127.93 13.8877C128.309 13.9289 128.693 13.9466 129.066 13.9584C129.786 13.9878 130.531 14.0173 131.234 14.2411C131.612 14.353 131.985 14.3765 132.351 14.3942C132.519 14.406 132.693 14.4119 132.862 14.4295C133.216 14.4708 133.576 14.5473 133.919 14.618C134.057 14.6474 134.195 14.6769 134.327 14.7005C134.375 14.7122 134.423 14.7299 134.459 14.7594C134.874 15.0538 135.33 15.207 135.799 15.3601C136.033 15.4367 136.189 15.5544 136.249 15.7135C136.309 15.8784 136.267 16.0786 136.123 16.3024Z" fill="white"/>
<path id="Vector_12" d="M129.54 23.1819C129.54 23.1819 129.414 23.2525 129.378 23.2702C129.023 23.4469 128.633 23.4881 128.164 23.494H128.128C126.657 23.494 125.377 23.1877 124.212 22.5693C123.774 22.3338 123.275 22.0687 122.873 21.6859C122.735 21.5504 122.644 21.3855 122.542 21.2147C122.488 21.1205 122.428 21.0204 122.362 20.9262C122.248 20.7671 122.14 20.6022 122.032 20.4373C121.972 20.3431 121.912 20.2547 121.852 20.1605C121.774 20.0486 121.72 19.9131 121.695 19.76C121.659 19.5539 121.726 19.442 121.912 19.3772C122.014 19.3419 122.116 19.3242 122.206 19.3242C122.56 19.3065 122.897 19.1828 123.257 18.9414C123.281 18.9296 123.293 18.9178 123.305 18.906L123.323 18.8884L123.371 18.8412C123.371 18.8412 123.515 18.7588 123.888 18.7588C123.99 18.7588 124.116 18.7647 124.266 18.7765H124.29C124.933 18.7823 125.461 18.8412 125.96 19.0886C126.092 19.1534 126.206 19.2417 126.326 19.3301C126.392 19.3772 126.453 19.4243 126.525 19.4773L126.555 19.5127C126.927 19.972 127.143 20.243 127.197 20.3077C127.203 20.3077 127.203 20.3136 127.209 20.3195C127.522 20.6729 127.81 21.0557 128.08 21.4327L128.254 21.6623C128.675 22.2395 129.053 22.6871 129.432 23.07C129.51 23.1465 129.534 23.1819 129.54 23.1819Z" fill="#F4F4F4"/>
<path id="Vector_13" d="M125.468 29.2358C125.468 29.3771 125.425 29.4831 125.347 29.542C125.275 29.5891 125.179 29.595 125.065 29.5597C124.723 29.4478 124.362 29.3241 123.918 29.1651C123.702 29.0885 123.503 28.9648 123.263 28.7646C123.047 28.5761 122.819 28.3994 122.602 28.2228C122.152 27.8753 121.696 27.5101 121.311 27.0802C120.608 26.2792 119.99 25.543 119.509 24.6831C119.389 24.4593 119.317 24.2178 119.245 23.9646C119.197 23.8056 119.149 23.6407 119.089 23.4875C119.065 23.4228 119.101 23.3462 119.125 23.3109C119.545 22.6394 119.701 21.8679 119.629 20.8196C119.611 20.5369 119.647 20.4898 119.942 20.425C120.05 20.3955 120.164 20.3778 120.278 20.3543C120.362 20.3425 120.452 20.3248 120.536 20.3072C120.74 20.2659 120.921 20.1658 121.089 20.0657L121.161 20.0304C121.161 20.0304 121.185 20.0127 121.191 20.0127C121.191 20.0186 121.197 20.0186 121.197 20.0245C121.329 20.5663 121.653 21.0021 121.972 21.4203L122.02 21.491C122.194 21.7148 122.356 21.9268 122.488 22.1624C122.536 22.2448 122.59 22.3273 122.681 22.3803C123.203 22.6866 123.455 23.1872 123.72 23.7113C124.344 24.9423 124.813 26.3263 125.257 28.1933L125.281 28.2993C125.359 28.6291 125.431 28.9354 125.468 29.2358Z" fill="#F4F4F4"/>
<path id="Vector_14" d="M119.023 21.4559C119.041 21.9742 118.861 22.4454 118.674 22.84L118.62 22.9578C118.494 23.2405 118.362 23.5291 118.164 23.7764C118.116 23.8471 118.05 23.8824 117.984 23.8824H117.972C117.912 23.8765 117.858 23.8353 117.822 23.7646C117.491 23.1227 117.149 22.4572 117.011 21.721C116.903 21.1732 117.017 20.7963 117.383 20.5077C117.449 20.4547 117.509 20.4017 117.569 20.3487C117.623 20.2957 117.677 20.2486 117.731 20.2014C117.78 20.1661 117.828 20.1484 117.87 20.1484C117.918 20.1484 117.96 20.1661 118.002 20.2073C118.164 20.3546 118.35 20.4429 118.578 20.4841C118.813 20.5254 118.939 20.6785 118.975 20.9435C118.993 21.0495 118.999 21.1673 119.005 21.2792C119.011 21.3381 119.017 21.4029 119.023 21.4559Z" fill="#EFEDE4"/>
<path id="Vector_15" d="M117.671 25.0716C117.299 26.0199 116.752 26.8621 116.056 27.5747C116.05 27.5747 116.038 27.5924 116.038 27.5924C116.014 27.6101 115.996 27.6336 115.978 27.6513C115.948 27.6807 115.899 27.7278 115.887 27.7337C115.851 27.7161 115.833 27.6925 115.827 27.6631C115.821 27.6454 115.827 27.6513 115.815 27.6395C115.695 27.4039 115.551 26.7914 115.509 26.6029C115.311 25.8137 115.221 25.0128 115.245 24.2235C115.251 24.0292 115.251 23.8348 115.251 23.6405C115.251 23.3224 115.251 22.9985 115.275 22.6805C115.317 22.1445 115.467 21.6204 115.587 21.2258C115.647 21.0432 115.719 21.002 115.984 21.002H116.068C116.2 21.0137 116.332 21.0196 116.35 21.0373C116.362 21.055 116.356 21.1433 116.356 21.2199C116.35 21.2611 116.35 21.3082 116.35 21.3553C116.326 22.2093 116.656 22.9573 117.005 23.6581C117.017 23.6758 117.029 23.6994 117.041 23.717C117.065 23.7583 117.089 23.7995 117.101 23.8466C117.161 24.0469 117.305 24.1705 117.425 24.253C117.743 24.4827 117.816 24.7183 117.671 25.0716Z" fill="white"/>
<path id="Vector_16" d="M114.62 28.0345C114.524 28.1464 114.434 28.2701 114.35 28.3879C114.308 28.4468 114.266 28.5057 114.224 28.5646C113.797 29.1241 113.347 29.6306 112.89 30.0841C112.83 30.143 112.758 30.2019 112.668 30.2667C112.506 30.3786 112.446 30.3727 112.325 30.2137C112.169 30.0134 112.073 29.7719 112.031 29.4775C111.983 29.1359 111.965 28.7825 111.947 28.4409C111.935 28.1935 111.923 27.9462 111.899 27.6988C111.863 27.1157 111.875 26.515 111.953 25.9084C111.977 25.7023 112.001 25.4961 112.025 25.2841C112.091 24.6539 112.163 24.0002 112.344 23.3759C112.524 22.7634 112.746 22.304 113.058 21.9329C113.202 21.7504 113.359 21.6384 113.539 21.5796C113.881 21.4735 114.139 21.2615 114.38 21.0554C114.482 20.9611 114.572 20.9199 114.668 20.9199C114.698 20.9199 114.734 20.9258 114.764 20.9376C114.866 20.9611 114.872 21.0024 114.866 21.0672C114.854 21.1025 114.848 21.1378 114.842 21.1732C114.836 21.2321 114.824 21.291 114.806 21.3499C114.662 21.8446 114.608 22.3452 114.572 22.9459C114.536 23.6056 114.518 24.1474 114.518 24.6539C114.518 25.4313 114.632 26.1675 114.836 26.8448C114.986 27.3278 114.92 27.6929 114.62 28.0345Z" fill="#F4F4F4"/>
<path id="Vector_17" d="M113.437 18.9876C113.088 19.6119 113.148 20.0713 113.647 20.5719C113.671 20.6014 113.677 20.6131 113.683 20.619C113.677 20.619 113.671 20.6308 113.641 20.6544C113.563 20.7074 113.473 20.7545 113.359 20.7957C112.59 21.0725 111.947 21.5673 111.407 22.009C110.5 22.7569 109.731 23.6404 109.1 24.4001C108.692 24.8949 108.241 25.3484 107.815 25.7606C107.484 26.0787 107.232 26.3967 107.034 26.7265C106.92 26.915 106.776 26.9974 106.571 26.9739C106.013 26.9209 105.893 26.862 105.767 26.3437C105.695 26.0139 105.677 25.6782 105.671 25.2777C105.646 24.7476 105.839 24.1587 106.013 23.7052C106.475 22.4801 107.268 21.3493 108.439 20.2362C109.425 19.3057 110.41 18.6343 111.455 18.169C112.151 17.8627 112.752 17.7037 113.341 17.6684C113.407 17.6684 113.473 17.6684 113.539 17.633C113.599 17.6036 113.653 17.5918 113.713 17.5918C113.827 17.5918 113.941 17.6507 114.091 17.7862C114.17 17.8568 114.26 17.9334 114.266 17.9628C114.266 17.9864 114.164 18.0865 114.097 18.1513C113.827 18.4046 113.605 18.6873 113.437 18.9876Z" fill="white"/>
<path id="Vector_18" d="M113.611 16.7793C113.491 16.8735 113.341 16.8912 113.179 16.9088H113.13C112.8 16.956 112.524 17.0266 112.278 17.1209C111.941 17.2563 111.605 17.3859 111.268 17.5155C111.01 17.6156 110.746 17.7216 110.482 17.8217C110.428 17.8453 110.392 17.8512 110.362 17.8394C109.947 17.6509 109.497 17.6097 109.07 17.5979C108.548 17.5861 108.157 17.2799 107.839 16.9972C107.833 16.9972 107.821 16.9854 107.815 16.9854C107.641 16.8087 107.16 16.6026 106.776 16.4495C106.77 16.4495 106.758 16.4436 106.752 16.4436C106.601 16.4082 106.445 16.3611 106.301 16.2904C106.079 16.1844 105.839 16.0843 105.562 15.9842C105.478 15.9547 105.424 15.9194 105.412 15.8841C105.394 15.8487 105.412 15.7839 105.454 15.7015C105.616 15.3834 105.887 15.1361 106.331 14.9005C106.595 14.765 106.896 14.6885 107.16 14.6885H107.232C107.551 14.6885 107.755 14.7297 107.935 14.8357C108.289 15.036 108.68 15.1184 109.058 15.1891L109.172 15.2126C109.455 15.2715 109.725 15.3893 109.983 15.5012C110.061 15.5366 110.145 15.5719 110.223 15.6014C111.202 16.0136 112.26 16.2433 113.365 16.2904H113.419C113.419 16.2904 113.461 16.2904 113.473 16.2963C113.521 16.3081 113.575 16.3022 113.617 16.2963C113.701 16.2904 113.707 16.2963 113.725 16.3317C113.779 16.4848 113.725 16.6909 113.611 16.7793Z" fill="#EFEDE4"/>
<path id="Vector_19" d="M126.26 3.60445C126.26 3.81059 126.218 4.00494 126.14 4.18752C125.768 5.02973 125.498 5.91905 125.239 6.77893C125.185 6.94973 125.137 7.12053 125.083 7.29132C124.681 8.59292 124.176 10.1242 123.509 11.5672C123.239 12.1443 122.981 12.6567 122.548 13.069C122.392 13.2221 122.212 13.3929 122.008 13.5166C121.725 13.6815 121.443 13.8818 121.173 14.1173C121.041 14.2292 120.885 14.2528 120.71 14.2764C120.728 14.2116 120.758 14.1527 120.782 14.0938C121.005 13.5637 120.915 13.1986 120.452 12.8393C120.17 12.6155 119.851 12.3858 119.437 12.3387C119.317 12.321 119.227 12.2327 119.149 12.0501C118.957 11.6084 118.908 11.1549 119.005 10.7132C119.209 9.7885 119.647 8.94629 120.302 8.2101C120.398 8.10997 120.476 7.99807 120.542 7.88617C120.59 7.8155 120.644 7.7566 120.704 7.72715C120.716 7.71537 120.728 7.70359 120.734 7.69181L121.359 6.93795C121.389 6.90261 121.425 6.86727 121.461 6.83194L122.278 6.0604C122.446 5.87783 122.626 5.70703 122.807 5.54212C123.005 5.36543 123.203 5.17697 123.383 4.97672C123.612 4.72347 123.846 4.47611 124.08 4.23464C124.176 4.13451 124.272 4.0285 124.368 3.92838C124.597 3.68691 124.777 3.42776 124.915 3.16273C125.059 2.88003 125.522 2.615 125.858 2.63267C125.906 2.63856 125.93 2.65623 125.966 2.71513C126.164 3.01549 126.26 3.30408 126.26 3.60445Z" fill="white"/>
<path id="Vector_20" d="M120.404 7.03806C119.99 7.49155 119.473 8.05695 119.095 8.68714C118.608 9.50579 118.338 10.2184 118.248 10.9252C118.182 11.4317 118.254 11.9028 118.47 12.3092C118.482 12.3269 118.488 12.3446 118.488 12.3563H118.452C118.368 12.3505 118.29 12.3622 118.206 12.3681C118.164 12.374 118.128 12.374 118.068 12.3858C118.032 12.3917 118.014 12.3917 118.014 12.3917C118.014 12.3917 118.002 12.3681 118.002 12.3033C118.002 11.8204 117.917 11.3492 117.743 10.8604C117.491 10.1595 117.395 9.41744 117.335 8.78137C117.311 8.51634 117.317 8.23364 117.329 7.96861C117.329 7.82726 117.335 7.68591 117.335 7.54456C117.347 7.468 117.401 7.09695 117.461 6.76125L117.491 6.57867C117.611 5.96027 117.719 5.3772 118.122 4.88836C118.374 4.58211 118.68 4.34063 119.035 4.17573C119.149 4.11683 119.329 4.0756 119.545 4.32297C119.695 4.49965 119.822 4.70579 119.912 4.94726C120.068 5.35953 120.218 5.7718 120.368 6.18996L120.494 6.54922C120.572 6.74947 120.548 6.89082 120.404 7.03806Z" fill="#F4F4F4"/>
<path id="Vector_21" d="M117.341 12.2504C117.323 12.5743 117.173 12.8099 116.902 12.9454C116.284 13.2634 116.248 13.8229 116.278 14.2116V14.247C116.284 14.3059 116.29 14.3648 116.29 14.3765C116.272 14.3883 116.194 14.406 116.134 14.4119C115.461 14.5297 114.938 14.7122 114.476 14.9949C114.374 15.0538 114.296 15.1245 114.236 15.207C114.109 15.3954 113.917 15.4956 113.653 15.5073C113.166 15.5309 112.728 15.4897 112.32 15.3719C112.145 15.3189 111.977 15.2718 111.803 15.2246C111.443 15.1245 111.07 15.0185 110.71 14.9007C110.091 14.6887 109.466 14.3412 108.806 13.8406L108.433 13.5638C107.857 13.128 107.256 12.6745 106.698 12.1974C106.511 12.0384 106.343 11.8499 106.187 11.6379C106.103 11.5319 106.073 11.4435 106.097 11.3729C106.115 11.3022 106.193 11.2374 106.325 11.1785C106.872 10.9606 107.46 10.8369 108.085 10.8251C108.127 10.8251 108.163 10.8192 108.205 10.8192C108.86 10.8192 109.545 10.9606 110.349 11.2433C110.476 11.2904 110.602 11.3375 110.728 11.3788C111.07 11.4965 111.425 11.6143 111.755 11.7851C112.199 12.003 112.602 12.3034 112.986 12.592C113.07 12.6568 113.148 12.7157 113.232 12.7746C113.311 12.8335 113.395 12.8983 113.479 12.9572C113.641 13.0867 113.815 13.2163 113.995 13.3341C114.344 13.5697 114.722 13.6934 115.118 13.7051H115.341C115.509 13.7169 115.683 13.7169 115.857 13.7169C115.965 13.7169 116.049 13.6698 116.092 13.5932C116.134 13.5226 116.128 13.4224 116.068 13.3282C115.983 13.181 115.839 13.0926 115.677 13.0867C114.752 13.0337 114.139 12.4801 113.611 11.8911C113.226 11.4612 112.932 10.9547 112.656 10.46L112.602 10.3775C112.241 9.74734 111.833 9.12305 111.443 8.52231C111.322 8.33973 111.202 8.15716 111.082 7.96869C110.92 7.71544 110.794 7.46219 110.71 7.21483C110.53 6.66121 110.283 6.12525 110.043 5.61286C109.953 5.4244 109.863 5.23004 109.779 5.04157C109.629 4.70587 109.503 4.35838 109.382 4.01679L109.274 3.69875C109.142 3.33949 109.058 2.98022 108.968 2.57384C108.872 2.13213 108.824 1.66096 108.836 1.1309C108.842 1.02489 108.86 0.936543 108.89 0.854089C108.932 0.765746 108.956 0.748077 108.974 0.742188C108.986 0.742188 109.016 0.742188 109.094 0.789304C109.316 0.924764 109.521 1.09556 109.719 1.25458C109.791 1.31348 109.863 1.37237 109.935 1.43127C111.202 2.45016 112.133 3.28059 112.938 4.14047C113.623 4.859 114.308 5.66587 115.094 6.67299C115.965 7.792 116.458 9.05237 116.83 10.1419C116.878 10.2833 116.926 10.4246 116.98 10.5601C117.113 10.9135 117.251 11.2786 117.305 11.6556C117.329 11.844 117.353 12.0443 117.341 12.2504Z" fill="white"/>
</g>
</g>
</g>
<defs>
<clipPath id="clip0_10417_1674">
<rect width="137" height="48" fill="white"/>
</clipPath>
</defs>
</svg>
